<svg width="82" height="82" viewBox="0 0 82 82" fill="none" xmlns="http://www.w3.org/2000/svg">
<g clip-path="url(#clip0_581_1028)">
<path d="M5.74756 11.342C5.74756 8.2531 8.25164 5.74902 11.3406 5.74902H48.8085C63.9443 5.74902 76.2143 18.019 76.2143 33.1549V70.6227C76.2143 73.7117 73.7102 76.2158 70.6213 76.2158H33.1534C18.0176 76.2158 5.74756 63.9457 5.74756 48.8099V11.342Z" fill="#0F0F0F"/>
<circle cx="40.9816" cy="40.9814" r="24.1357" fill="#F4F8D5"/>
<path d="M49.2898 40.1201H49.7634L49.5261 40.9795L49.7644 41.8428H49.2888L40.9812 71.9814L32.6736 41.8428H32.199L32.4363 40.9814L32.199 40.1201H32.6736L40.9812 9.98145L49.2898 40.1201Z" fill="#F4F8D5"/>
<path d="M40.1196 32.6738L40.1196 32.1992L40.981 32.4375L41.8433 32.1992L41.8433 32.6738L71.9819 40.9814L41.8433 49.2891L41.8433 49.7637L40.981 49.5264L40.1196 49.7637L40.1196 49.2891L9.98096 40.9814L40.1196 32.6738Z" fill="#F4F8D5"/>
<path d="M47.4654 46.2452L47.801 46.5808L47.0255 47.0207L46.5829 47.8003L46.2459 47.4633L19.0603 62.9002L34.4972 35.7146L34.1622 35.3797L34.9377 34.9384L35.3803 34.1602L35.7173 34.4972L62.9016 19.0603L47.4654 46.2452Z" fill="#F4F8D5"/>
<path d="M46.246 34.4977L46.5823 34.1614L47.0228 34.939L47.8011 35.3802L47.4655 35.7158L62.9024 62.9014L35.7167 47.4646L35.3804 47.8008L34.9371 47.0219L34.1623 46.5814L34.4979 46.2458L19.061 19.0615L46.246 34.4977Z" fill="#F4F8D5"/>
<g filter="url(#filter0_d_581_1028)">
<circle cx="40.9814" cy="40.9819" r="18.7807" fill="#6DC54D"/>
</g>
<g filter="url(#filter1_d_581_1028)">
<path d="M42.4598 54.8964L42.417 54.8536L36.7788 45.3277L27.2529 39.6894L27.2101 39.6466L51.4747 30.6317L42.4598 54.8964Z" fill="#0F0F0F"/>
</g>
<path d="M5.74707 9.31178C5.74707 6.22283 8.25116 3.71875 11.3401 3.71875H48.808C63.9438 3.71875 76.2138 15.9888 76.2138 31.1246V68.5925C76.2138 71.6814 73.7097 74.1855 70.6208 74.1855H33.1529C18.0171 74.1855 5.74707 61.9155 5.74707 46.7796V9.31178Z" fill="#0F0F0F"/>
<circle cx="40.9812" cy="38.9511" r="24.1357" fill="#F4F8D5"/>
<path d="M49.2893 38.0898H49.7629L49.5256 38.9492L49.7639 39.8125H49.2883L40.9807 69.9512L32.6731 39.8125H32.1985L32.4358 38.9512L32.1985 38.0898H32.6731L40.9807 7.95117L49.2893 38.0898Z" fill="#F4F8D5"/>
<path d="M40.1191 30.6436L40.1191 30.1689L40.9805 30.4072L41.8428 30.1689L41.8428 30.6436L71.9814 38.9512L41.8428 47.2588L41.8428 47.7334L40.9805 47.4961L40.1191 47.7334L40.1191 47.2588L9.98047 38.9512L40.1191 30.6436Z" fill="#F4F8D5"/>
<path d="M47.4649 44.2149L47.8005 44.5505L47.025 44.9904L46.5824 45.77L46.2454 45.433L19.0598 60.8699L34.4967 33.6843L34.1618 33.3494L34.9372 32.9081L35.3799 32.1299L35.7168 32.4669L62.9011 17.03L47.4649 44.2149Z" fill="#F4F8D5"/>
<path d="M46.2455 32.4674L46.5818 32.1311L47.0223 32.9087L47.8006 33.3499L47.465 33.6855L62.9019 60.8712L35.7162 45.4343L35.3799 45.7706L34.9366 44.9916L34.1618 44.5511L34.4974 44.2155L19.0606 17.0312L46.2455 32.4674Z" fill="#F4F8D5"/>
<g filter="url(#filter2_d_581_1028)">
<circle cx="40.9809" cy="38.9516" r="18.7807" fill="#6DC54D"/>
</g>
<g filter="url(#filter3_d_581_1028)">
<path d="M42.4593 52.8661L42.4165 52.8233L36.7783 43.2974L27.2524 37.6592L27.2096 37.6164L51.4742 28.6014L42.4593 52.8661Z" fill="#0F0F0F"/>
</g>
<path d="M5.74658 7.2815C5.74658 4.19256 8.25067 1.68848 11.3396 1.68848H48.8075C63.9433 1.68848 76.2133 13.9585 76.2133 29.0943V66.5622C76.2133 69.6511 73.7092 72.1552 70.6203 72.1552H33.1524C18.0166 72.1552 5.74658 59.8852 5.74658 44.7494V7.2815Z" fill="#0F0F0F"/>
<circle cx="40.9807" cy="36.9209" r="24.1357" fill="#F4F8D5"/>
<path d="M49.2888 36.0596H49.7625L49.5251 36.9189L49.7634 37.7822H49.2878L40.9802 67.9209L32.6726 37.7822H32.198L32.4353 36.9209L32.198 36.0596H32.6726L40.9802 5.9209L49.2888 36.0596Z" fill="#F4F8D5"/>
<path d="M40.1187 28.6133L40.1187 28.1387L40.98 28.377L41.8423 28.1387L41.8423 28.6133L71.981 36.9209L41.8423 45.2285L41.8423 45.7031L40.98 45.4658L40.1187 45.7031L40.1187 45.2285L9.97998 36.9209L40.1187 28.6133Z" fill="#F4F8D5"/>
<path d="M47.4644 42.1847L47.8 42.5203L47.0245 42.9601L46.5819 43.7397L46.2449 43.4028L19.0593 58.8397L34.4962 31.654L34.1613 31.3191L34.9367 30.8779L35.3794 30.0996L35.7164 30.4366L62.9006 14.9997L47.4644 42.1847Z" fill="#F4F8D5"/>
<path d="M46.245 30.4372L46.5813 30.1009L47.0219 30.8784L47.8001 31.3197L47.4645 31.6553L62.9014 58.8409L35.7157 43.404L35.3795 43.7403L34.9361 42.9614L34.1614 42.5208L34.497 42.1852L19.0601 15.001L46.245 30.4372Z" fill="#F4F8D5"/>
<g filter="url(#filter4_d_581_1028)">
<circle cx="40.9804" cy="36.9214" r="18.7807" fill="#6DC54D"/>
</g>
<g filter="url(#filter5_d_581_1028)">
<path d="M42.4588 50.8358L42.416 50.793L36.7778 41.2671L27.2519 35.6289L27.2091 35.5861L51.4738 26.5712L42.4588 50.8358Z" fill="#0F0F0F"/>
</g>
</g>
<defs>
<filter id="filter0_d_581_1028" x="22.1448" y="22.1452" width="39.9106" height="39.9106" filterUnits="userSpaceOnUse" color-interpolation-filters="sRGB">
<feFlood flood-opacity="0" result="BackgroundImageFix"/>
<feColorMatrix in="SourceAlpha" type="matrix" values="0 0 0 0 0 0 0 0 0 0 0 0 0 0 0 0 0 0 127 0" result="hardAlpha"/>
<feOffset dx="1.11861" dy="1.11861"/>
<feGaussianBlur stdDeviation="0.587268"/>
<feComposite in2="hardAlpha" operator="out"/>
<feColorMatrix type="matrix" values="0 0 0 0 0 0 0 0 0 0 0 0 0 0 0 0 0 0 0.42 0"/>
<feBlend mode="normal" in2="BackgroundImageFix" result="effect1_dropShadow_581_1028"/>
<feBlend mode="normal" in="SourceGraphic" in2="effect1_dropShadow_581_1028" result="shape"/>
</filter>
<filter id="filter1_d_581_1028" x="25.9237" y="30.6318" width="27.956" height="28.3476" filterUnits="userSpaceOnUse" color-interpolation-filters="sRGB">
<feFlood flood-opacity="0" result="BackgroundImageFix"/>
<feColorMatrix in="SourceAlpha" type="matrix" values="0 0 0 0 0 0 0 0 0 0 0 0 0 0 0 0 0 0 127 0" result="hardAlpha"/>
<feOffset dx="0.559303" dy="2.23721"/>
<feGaussianBlur stdDeviation="0.92285"/>
<feComposite in2="hardAlpha" operator="out"/>
<feColorMatrix type="matrix" values="0 0 0 0 0 0 0 0 0 0 0 0 0 0 0 0 0 0 0.47 0"/>
<feBlend mode="normal" in2="BackgroundImageFix" result="effect1_dropShadow_581_1028"/>
<feBlend mode="normal" in="SourceGraphic" in2="effect1_dropShadow_581_1028" result="shape"/>
</filter>
<filter id="filter2_d_581_1028" x="22.1443" y="20.115" width="39.9106" height="39.9106" filterUnits="userSpaceOnUse" color-interpolation-filters="sRGB">
<feFlood flood-opacity="0" result="BackgroundImageFix"/>
<feColorMatrix in="SourceAlpha" type="matrix" values="0 0 0 0 0 0 0 0 0 0 0 0 0 0 0 0 0 0 127 0" result="hardAlpha"/>
<feOffset dx="1.11861" dy="1.11861"/>
<feGaussianBlur stdDeviation="0.587268"/>
<feComposite in2="hardAlpha" operator="out"/>
<feColorMatrix type="matrix" values="0 0 0 0 0 0 0 0 0 0 0 0 0 0 0 0 0 0 0.42 0"/>
<feBlend mode="normal" in2="BackgroundImageFix" result="effect1_dropShadow_581_1028"/>
<feBlend mode="normal" in="SourceGraphic" in2="effect1_dropShadow_581_1028" result="shape"/>
</filter>
<filter id="filter3_d_581_1028" x="25.9232" y="28.6016" width="27.956" height="28.3476" filterUnits="userSpaceOnUse" color-interpolation-filters="sRGB">
<feFlood flood-opacity="0" result="BackgroundImageFix"/>
<feColorMatrix in="SourceAlpha" type="matrix" values="0 0 0 0 0 0 0 0 0 0 0 0 0 0 0 0 0 0 127 0" result="hardAlpha"/>
<feOffset dx="0.559303" dy="2.23721"/>
<feGaussianBlur stdDeviation="0.92285"/>
<feComposite in2="hardAlpha" operator="out"/>
<feColorMatrix type="matrix" values="0 0 0 0 0 0 0 0 0 0 0 0 0 0 0 0 0 0 0.47 0"/>
<feBlend mode="normal" in2="BackgroundImageFix" result="effect1_dropShadow_581_1028"/>
<feBlend mode="normal" in="SourceGraphic" in2="effect1_dropShadow_581_1028" result="shape"/>
</filter>
<filter id="filter4_d_581_1028" x="22.1438" y="18.0847" width="39.9106" height="39.9106" filterUnits="userSpaceOnUse" color-interpolation-filters="sRGB">
<feFlood flood-opacity="0" result="BackgroundImageFix"/>
<feColorMatrix in="SourceAlpha" type="matrix" values="0 0 0 0 0 0 0 0 0 0 0 0 0 0 0 0 0 0 127 0" result="hardAlpha"/>
<feOffset dx="1.11861" dy="1.11861"/>
<feGaussianBlur stdDeviation="0.587268"/>
<feComposite in2="hardAlpha" operator="out"/>
<feColorMatrix type="matrix" values="0 0 0 0 0 0 0 0 0 0 0 0 0 0 0 0 0 0 0.42 0"/>
<feBlend mode="normal" in2="BackgroundImageFix" result="effect1_dropShadow_581_1028"/>
<feBlend mode="normal" in="SourceGraphic" in2="effect1_dropShadow_581_1028" result="shape"/>
</filter>
<filter id="filter5_d_581_1028" x="25.9227" y="26.5713" width="27.956" height="28.3476" filterUnits="userSpaceOnUse" color-interpolation-filters="sRGB">
<feFlood flood-opacity="0" result="BackgroundImageFix"/>
<feColorMatrix in="SourceAlpha" type="matrix" values="0 0 0 0 0 0 0 0 0 0 0 0 0 0 0 0 0 0 127 0" result="hardAlpha"/>
<feOffset dx="0.559303" dy="2.23721"/>
<feGaussianBlur stdDeviation="0.92285"/>
<feComposite in2="hardAlpha" operator="out"/>
<feColorMatrix type="matrix" values="0 0 0 0 0 0 0 0 0 0 0 0 0 0 0 0 0 0 0.47 0"/>
<feBlend mode="normal" in2="BackgroundImageFix" result="effect1_dropShadow_581_1028"/>
<feBlend mode="normal" in="SourceGraphic" in2="effect1_dropShadow_581_1028" result="shape"/>
</filter>
<clipPath id="clip0_581_1028">
<rect width="82" height="82" rx="13.4233" fill="white"/>
</clipPath>
</defs>
</svg>
